<mxfile host="www.draw.io" modified="2019-10-16T08:03:49.675Z" agent="Mozilla/5.0 (Windows NT 10.0; Win64; x64) AppleWebKit/537.36 (KHTML, like Gecko) Chrome/77.0.3865.90 Safari/537.36" etag="0BhLlsE1lBkUkeXdpAGt" version="12.1.1" type="github" pages="1">
  <diagram id="TRQZRxFE2UUnhZVy3Vv9" name="Page-1">
    <mxGraphModel dx="1798" dy="504" grid="1" gridSize="10" guides="1" tooltips="1" connect="1" arrows="1" fold="1" page="1" pageScale="1" pageWidth="827" pageHeight="1169" math="0" shadow="0">
      <root>
        <mxCell id="0"/>
        <mxCell id="1" parent="0"/>
        <mxCell id="ImjWVZS0eTyNnuTtl9i0-17" value="" style="rounded=0;whiteSpace=wrap;html=1;" parent="1" vertex="1">
          <mxGeometry x="400" y="455" width="160" height="270" as="geometry"/>
        </mxCell>
        <mxCell id="ImjWVZS0eTyNnuTtl9i0-1" value="干涉仪1" style="rounded=0;whiteSpace=wrap;html=1;" parent="1" vertex="1">
          <mxGeometry x="100" y="465" width="120" height="60" as="geometry"/>
        </mxCell>
        <mxCell id="ImjWVZS0eTyNnuTtl9i0-2" value="干涉仪2" style="rounded=0;whiteSpace=wrap;html=1;" parent="1" vertex="1">
          <mxGeometry x="100" y="550" width="120" height="60" as="geometry"/>
        </mxCell>
        <mxCell id="ImjWVZS0eTyNnuTtl9i0-3" value="干涉仪N" style="rounded=0;whiteSpace=wrap;html=1;" parent="1" vertex="1">
          <mxGeometry x="100" y="665" width="120" height="60" as="geometry"/>
        </mxCell>
        <mxCell id="ImjWVZS0eTyNnuTtl9i0-4" value="第一光疏" style="rounded=0;whiteSpace=wrap;html=1;" parent="1" vertex="1">
          <mxGeometry x="-70" y="480" width="20" height="90" as="geometry"/>
        </mxCell>
        <mxCell id="ImjWVZS0eTyNnuTtl9i0-6" value="第一分光" style="rounded=0;whiteSpace=wrap;html=1;" parent="1" vertex="1">
          <mxGeometry y="480" width="20" height="90" as="geometry"/>
        </mxCell>
        <mxCell id="ImjWVZS0eTyNnuTtl9i0-7" value="第二光疏" style="rounded=0;whiteSpace=wrap;html=1;" parent="1" vertex="1">
          <mxGeometry x="-70" y="610" width="20" height="90" as="geometry"/>
        </mxCell>
        <mxCell id="ImjWVZS0eTyNnuTtl9i0-8" value="第二分光" style="rounded=0;whiteSpace=wrap;html=1;" parent="1" vertex="1">
          <mxGeometry y="610" width="20" height="90" as="geometry"/>
        </mxCell>
        <mxCell id="ImjWVZS0eTyNnuTtl9i0-9" value="信息采集模块" style="rounded=0;whiteSpace=wrap;html=1;" parent="1" vertex="1">
          <mxGeometry x="260" y="545" width="20" height="90" as="geometry"/>
        </mxCell>
        <mxCell id="ImjWVZS0eTyNnuTtl9i0-11" value="数据存储1" style="rounded=0;whiteSpace=wrap;html=1;" parent="1" vertex="1">
          <mxGeometry x="420" y="477.5" width="70" height="35" as="geometry"/>
        </mxCell>
        <mxCell id="ImjWVZS0eTyNnuTtl9i0-14" value="信息处理模块" style="rounded=0;whiteSpace=wrap;html=1;" parent="1" vertex="1">
          <mxGeometry x="520" y="512.5" width="20" height="170" as="geometry"/>
        </mxCell>
        <mxCell id="ImjWVZS0eTyNnuTtl9i0-20" value="" style="endArrow=none;dashed=1;html=1;rounded=0;" parent="1" edge="1">
          <mxGeometry width="50" height="50" relative="1" as="geometry">
            <mxPoint x="160" y="660" as="sourcePoint"/>
            <mxPoint x="160" y="615" as="targetPoint"/>
          </mxGeometry>
        </mxCell>
        <mxCell id="ImjWVZS0eTyNnuTtl9i0-24" value="" style="endArrow=classic;html=1;entryX=0;entryY=0.5;entryDx=0;entryDy=0;exitX=1;exitY=0.5;exitDx=0;exitDy=0;rounded=0;" parent="1" source="ImjWVZS0eTyNnuTtl9i0-4" target="ImjWVZS0eTyNnuTtl9i0-6" edge="1">
          <mxGeometry width="50" height="50" relative="1" as="geometry">
            <mxPoint x="-90" y="540" as="sourcePoint"/>
            <mxPoint x="-40" y="490" as="targetPoint"/>
          </mxGeometry>
        </mxCell>
        <mxCell id="ImjWVZS0eTyNnuTtl9i0-25" value="" style="endArrow=classic;html=1;entryX=0;entryY=0.5;entryDx=0;entryDy=0;rounded=0;" parent="1" edge="1">
          <mxGeometry width="50" height="50" relative="1" as="geometry">
            <mxPoint x="-50" y="655" as="sourcePoint"/>
            <mxPoint y="655" as="targetPoint"/>
          </mxGeometry>
        </mxCell>
        <mxCell id="ImjWVZS0eTyNnuTtl9i0-26" value="数据存储2" style="rounded=0;whiteSpace=wrap;html=1;" parent="1" vertex="1">
          <mxGeometry x="420" y="545" width="70" height="35" as="geometry"/>
        </mxCell>
        <mxCell id="ImjWVZS0eTyNnuTtl9i0-27" value="数据存储N" style="rounded=0;whiteSpace=wrap;html=1;" parent="1" vertex="1">
          <mxGeometry x="420" y="655" width="70" height="35" as="geometry"/>
        </mxCell>
        <mxCell id="ImjWVZS0eTyNnuTtl9i0-28" value="" style="endArrow=none;dashed=1;html=1;rounded=0;" parent="1" edge="1">
          <mxGeometry width="50" height="50" relative="1" as="geometry">
            <mxPoint x="455" y="645" as="sourcePoint"/>
            <mxPoint x="455" y="600" as="targetPoint"/>
          </mxGeometry>
        </mxCell>
        <mxCell id="ImjWVZS0eTyNnuTtl9i0-32" value="" style="endArrow=none;html=1;entryX=0.5;entryY=0;entryDx=0;entryDy=0;rounded=0;" parent="1" target="ImjWVZS0eTyNnuTtl9i0-9" edge="1">
          <mxGeometry width="50" height="50" relative="1" as="geometry">
            <mxPoint x="220" y="495" as="sourcePoint"/>
            <mxPoint x="270" y="495" as="targetPoint"/>
            <Array as="points">
              <mxPoint x="270" y="495"/>
            </Array>
          </mxGeometry>
        </mxCell>
        <mxCell id="ImjWVZS0eTyNnuTtl9i0-33" value="" style="endArrow=none;html=1;entryX=0.5;entryY=1;entryDx=0;entryDy=0;rounded=0;" parent="1" target="ImjWVZS0eTyNnuTtl9i0-9" edge="1">
          <mxGeometry width="50" height="50" relative="1" as="geometry">
            <mxPoint x="220" y="697.5" as="sourcePoint"/>
            <mxPoint x="270" y="647.5" as="targetPoint"/>
            <Array as="points">
              <mxPoint x="270" y="698"/>
            </Array>
          </mxGeometry>
        </mxCell>
        <mxCell id="ImjWVZS0eTyNnuTtl9i0-38" value="" style="endArrow=none;html=1;exitX=1;exitY=0.5;exitDx=0;exitDy=0;entryX=-0.038;entryY=0.388;entryDx=0;entryDy=0;entryPerimeter=0;rounded=0;" parent="1" source="ImjWVZS0eTyNnuTtl9i0-2" target="ImjWVZS0eTyNnuTtl9i0-9" edge="1">
          <mxGeometry width="50" height="50" relative="1" as="geometry">
            <mxPoint x="210" y="620" as="sourcePoint"/>
            <mxPoint x="260" y="570" as="targetPoint"/>
          </mxGeometry>
        </mxCell>
        <mxCell id="ImjWVZS0eTyNnuTtl9i0-52" value="" style="endArrow=none;html=1;rounded=0;" parent="1" edge="1">
          <mxGeometry width="50" height="50" relative="1" as="geometry">
            <mxPoint x="70" y="680" as="sourcePoint"/>
            <mxPoint x="70" y="480" as="targetPoint"/>
          </mxGeometry>
        </mxCell>
        <mxCell id="ImjWVZS0eTyNnuTtl9i0-53" value="" style="endArrow=none;html=1;rounded=0;" parent="1" edge="1">
          <mxGeometry width="50" height="50" relative="1" as="geometry">
            <mxPoint x="50" y="700" as="sourcePoint"/>
            <mxPoint x="50" y="500" as="targetPoint"/>
          </mxGeometry>
        </mxCell>
        <mxCell id="ImjWVZS0eTyNnuTtl9i0-56" value="" style="endArrow=classic;html=1;entryX=-0.005;entryY=0.407;entryDx=0;entryDy=0;entryPerimeter=0;" parent="1" edge="1">
          <mxGeometry width="50" height="50" relative="1" as="geometry">
            <mxPoint x="70.5" y="562.5" as="sourcePoint"/>
            <mxPoint x="99.89999999999986" y="561.92" as="targetPoint"/>
          </mxGeometry>
        </mxCell>
        <mxCell id="ImjWVZS0eTyNnuTtl9i0-59" value="" style="endArrow=classic;html=1;entryX=-0.005;entryY=0.407;entryDx=0;entryDy=0;entryPerimeter=0;" parent="1" edge="1">
          <mxGeometry width="50" height="50" relative="1" as="geometry">
            <mxPoint x="70.5" y="480.5" as="sourcePoint"/>
            <mxPoint x="99.90000000000009" y="479.91999999999996" as="targetPoint"/>
          </mxGeometry>
        </mxCell>
        <mxCell id="ImjWVZS0eTyNnuTtl9i0-60" value="" style="endArrow=classic;html=1;entryX=-0.005;entryY=0.407;entryDx=0;entryDy=0;entryPerimeter=0;" parent="1" edge="1">
          <mxGeometry width="50" height="50" relative="1" as="geometry">
            <mxPoint x="70" y="680.5" as="sourcePoint"/>
            <mxPoint x="99.39999999999986" y="679.92" as="targetPoint"/>
          </mxGeometry>
        </mxCell>
        <mxCell id="ImjWVZS0eTyNnuTtl9i0-62" value="" style="endArrow=classic;html=1;" parent="1" edge="1">
          <mxGeometry width="50" height="50" relative="1" as="geometry">
            <mxPoint x="50" y="700" as="sourcePoint"/>
            <mxPoint x="100" y="700" as="targetPoint"/>
          </mxGeometry>
        </mxCell>
        <mxCell id="ImjWVZS0eTyNnuTtl9i0-63" value="" style="endArrow=classic;html=1;" parent="1" edge="1">
          <mxGeometry width="50" height="50" relative="1" as="geometry">
            <mxPoint x="50" y="580" as="sourcePoint"/>
            <mxPoint x="100" y="580" as="targetPoint"/>
          </mxGeometry>
        </mxCell>
        <mxCell id="ImjWVZS0eTyNnuTtl9i0-65" value="" style="endArrow=classic;html=1;" parent="1" edge="1">
          <mxGeometry width="50" height="50" relative="1" as="geometry">
            <mxPoint x="50" y="700" as="sourcePoint"/>
            <mxPoint x="100" y="700" as="targetPoint"/>
          </mxGeometry>
        </mxCell>
        <mxCell id="ImjWVZS0eTyNnuTtl9i0-66" value="" style="endArrow=classic;html=1;" parent="1" edge="1">
          <mxGeometry width="50" height="50" relative="1" as="geometry">
            <mxPoint x="50" y="500" as="sourcePoint"/>
            <mxPoint x="100" y="500" as="targetPoint"/>
          </mxGeometry>
        </mxCell>
        <mxCell id="ImjWVZS0eTyNnuTtl9i0-67" value="" style="endArrow=none;html=1;exitX=1;exitY=0.5;exitDx=0;exitDy=0;" parent="1" source="ImjWVZS0eTyNnuTtl9i0-6" edge="1">
          <mxGeometry width="50" height="50" relative="1" as="geometry">
            <mxPoint x="20" y="575" as="sourcePoint"/>
            <mxPoint x="70" y="525" as="targetPoint"/>
          </mxGeometry>
        </mxCell>
        <mxCell id="ImjWVZS0eTyNnuTtl9i0-68" value="" style="endArrow=none;html=1;exitX=1;exitY=0.5;exitDx=0;exitDy=0;" parent="1" edge="1">
          <mxGeometry width="50" height="50" relative="1" as="geometry">
            <mxPoint x="20" y="650" as="sourcePoint"/>
            <mxPoint x="70" y="650" as="targetPoint"/>
          </mxGeometry>
        </mxCell>
        <mxCell id="ImjWVZS0eTyNnuTtl9i0-69" value="" style="endArrow=none;html=1;exitX=1.02;exitY=0.644;exitDx=0;exitDy=0;exitPerimeter=0;" parent="1" source="ImjWVZS0eTyNnuTtl9i0-6" edge="1">
          <mxGeometry width="50" height="50" relative="1" as="geometry">
            <mxPoint y="587.5" as="sourcePoint"/>
            <mxPoint x="50" y="537.5" as="targetPoint"/>
          </mxGeometry>
        </mxCell>
        <mxCell id="ImjWVZS0eTyNnuTtl9i0-70" value="" style="endArrow=none;html=1;exitX=1.02;exitY=0.644;exitDx=0;exitDy=0;exitPerimeter=0;" parent="1" edge="1">
          <mxGeometry width="50" height="50" relative="1" as="geometry">
            <mxPoint x="19.90000000000009" y="664.76" as="sourcePoint"/>
            <mxPoint x="49.5" y="664.3" as="targetPoint"/>
          </mxGeometry>
        </mxCell>
        <mxCell id="ImjWVZS0eTyNnuTtl9i0-73" value="" style="endArrow=classic;html=1;entryX=0;entryY=0.5;entryDx=0;entryDy=0;exitX=1;exitY=0.5;exitDx=0;exitDy=0;" parent="1" source="ImjWVZS0eTyNnuTtl9i0-9" target="ImjWVZS0eTyNnuTtl9i0-17" edge="1">
          <mxGeometry width="50" height="50" relative="1" as="geometry">
            <mxPoint x="280" y="595" as="sourcePoint"/>
            <mxPoint x="330" y="545" as="targetPoint"/>
          </mxGeometry>
        </mxCell>
        <mxCell id="ImjWVZS0eTyNnuTtl9i0-75" value="" style="endArrow=classic;html=1;rounded=0;exitX=1;exitY=0.5;exitDx=0;exitDy=0;entryX=1;entryY=0.5;entryDx=0;entryDy=0;" parent="1" source="ImjWVZS0eTyNnuTtl9i0-17" target="ImjWVZS0eTyNnuTtl9i0-77" edge="1">
          <mxGeometry width="50" height="50" relative="1" as="geometry">
            <mxPoint x="750" y="625" as="sourcePoint"/>
            <mxPoint x="380" y="790" as="targetPoint"/>
            <Array as="points">
              <mxPoint x="580" y="590"/>
              <mxPoint x="620" y="590"/>
              <mxPoint x="620" y="790"/>
              <mxPoint x="510" y="790"/>
            </Array>
          </mxGeometry>
        </mxCell>
        <mxCell id="ImjWVZS0eTyNnuTtl9i0-77" value="自动锁螺丝机" style="ellipse;whiteSpace=wrap;html=1;" parent="1" vertex="1">
          <mxGeometry x="280" y="750" width="120" height="80" as="geometry"/>
        </mxCell>
        <mxCell id="ImjWVZS0eTyNnuTtl9i0-80" value="发送数据到云端" style="text;html=1;strokeColor=none;fillColor=none;align=center;verticalAlign=middle;whiteSpace=wrap;rounded=0;" parent="1" vertex="1">
          <mxGeometry x="290" y="571" width="90" height="18" as="geometry"/>
        </mxCell>
        <mxCell id="ImjWVZS0eTyNnuTtl9i0-81" value="云端" style="text;html=1;strokeColor=none;fillColor=none;align=center;verticalAlign=middle;whiteSpace=wrap;rounded=0;" parent="1" vertex="1">
          <mxGeometry x="460" y="700" width="40" height="20" as="geometry"/>
        </mxCell>
        <mxCell id="ImjWVZS0eTyNnuTtl9i0-82" value="反馈信息到传送带和锁螺丝机" style="text;html=1;resizable=0;points=[];autosize=1;align=left;verticalAlign=top;spacingTop=-4;" parent="1" vertex="1">
          <mxGeometry x="430" y="770" width="170" height="20" as="geometry"/>
        </mxCell>
        <mxCell id="ImjWVZS0eTyNnuTtl9i0-83" value="" style="endArrow=classic;html=1;entryX=0.5;entryY=1;entryDx=0;entryDy=0;exitX=0;exitY=0.5;exitDx=0;exitDy=0;rounded=0;" parent="1" source="ImjWVZS0eTyNnuTtl9i0-77" target="ImjWVZS0eTyNnuTtl9i0-3" edge="1">
          <mxGeometry width="50" height="50" relative="1" as="geometry">
            <mxPoint x="-70" y="900" as="sourcePoint"/>
            <mxPoint x="-20" y="850" as="targetPoint"/>
            <Array as="points">
              <mxPoint x="160" y="790"/>
            </Array>
          </mxGeometry>
        </mxCell>
        <mxCell id="ImjWVZS0eTyNnuTtl9i0-84" value="返回测距装置检验" style="text;html=1;resizable=0;points=[];autosize=1;align=left;verticalAlign=top;spacingTop=-4;" parent="1" vertex="1">
          <mxGeometry x="170" y="770" width="110" height="20" as="geometry"/>
        </mxCell>
        <mxCell id="Qz9OkryXR8XuoXt7Twxf-3" value="将有问题的被测物体传送至锁螺丝机" style="text;html=1;resizable=0;points=[];autosize=1;align=left;verticalAlign=top;spacingTop=-4;" vertex="1" parent="1">
          <mxGeometry x="420" y="790" width="210" height="20" as="geometry"/>
        </mxCell>
        <mxCell id="Qz9OkryXR8XuoXt7Twxf-5" value="Text" style="text;html=1;resizable=0;points=[];autosize=1;align=left;verticalAlign=top;spacingTop=-4;" vertex="1" parent="1">
          <mxGeometry x="368" y="548" width="40" height="20" as="geometry"/>
        </mxCell>
      </root>
    </mxGraphModel>
  </diagram>
</mxfile>
